# xmcd
# 
# Track frame offsets:
#     150
#     21029
#     41790
#     60442
#     83890
#     105456
#     123946
#     152056
#     173309
#     195929
#     218197
#     242934
#     271875
#     293900
#     328514
# 
# Disc length: 4679
# 
# Revision: 2
# Processed by: cddbd v1.5.2PL0 Copyright (c) Steve Scherf et al.
# Submitted via: fre:ac v1.0.31
# 
DISCID=c312450f
DTITLE=2 Pac - All Eyez On Me (Book 1)
DYEAR=1996
DGENRE=Hip Hop
TTITLE0=2Pac - Ambitionz Az a Ridah [ALBUM CLEAN]
TTITLE1=2Pac ft Snoop Dogg_Nate Dogg_Fatal_Yaki Hadati - All About U [ALBUM CLEAN]
TTITLE2=2Pac ft Nate Dogg - Skandalouz [ALBUM CLEAN]
TTITLE3=2Pac ft Dat Nigga Daz_Kurupt_Redman_Method Man - Got my Mind Made Up [ALBUM CLEAN]
TTITLE4=2Pac ft KC and JoJo - How Do You Want It [ALBUM CLEAN]
TTITLE5=2Pac ft Snoop Dogg - 2 of Amerika'z Most Wanted [ALBUM CLEAN]
TTITLE6=2Pac - No More Pain [ALBUM CLEAN]
TTITLE7=2Pac - Heartz of Men [ALBUM CLEAN]
TTITLE8=2Pac - Life Goes On [ALBUM CLEAN]
TTITLE9=2Pac ft Rappin' 4-Tay - Only God can Judge Me [ALBUM CLEAN]
TTITLE10=2Pac ft Outlawz_CPO_Storm - Tradin' War Stories [ALBUM CLEAN]
TTITLE11=2Pac ft Dr. Dre_Roger Troutman - California Love (Remix) [ALBUM CLEAN]
TTITLE12=2Pac ft Danny Boy - I ain't Mad at Cha [ALBUM CLEAN]
TTITLE13=2Pac ft Danny Boy - What's ya Phone Number[ALBUM CLEAN]
TTITLE14=2Pac - DATA
EXTD=
EXTT0=
EXTT1=
EXTT2=
EXTT3=
EXTT4=
EXTT5=
EXTT6=
EXTT7=
EXTT8=
EXTT9=
EXTT10=
EXTT11=
EXTT12=
EXTT13=
EXTT14=
PLAYORDER=
